<?xml version="1.0" encoding="utf-8"?>
<!-- Generator: Adobe Illustrator 22.0.1, SVG Export Plug-In . SVG Version: 6.00 Build 0)  -->
<svg version="1.1" xmlns="http://www.w3.org/2000/svg" xmlns:xlink="http://www.w3.org/1999/xlink" x="0px" y="0px"
	 viewBox="0 0 158.3 64.7" style="enable-background:new 0 0 158.3 64.7;" xml:space="preserve">
<style type="text/css">
	.st0{fill:#FFFFFF;}
	.st1{fill:none;stroke:#FFFFFF;stroke-width:1.5;stroke-miterlimit:10;}
</style>
<g id="LOGOs">
	<path class="st0" d="M76.7,63.6c-0.3,0-0.6-0.2-0.6-0.6V6.1c0-0.3,0.2-0.6,0.6-0.6c0.3,0,0.6,0.2,0.6,0.6v56.9
		C77.3,63.4,77,63.6,76.7,63.6"/>
	<path class="st0" d="M105,24.6h0.2l0.1,3.1H105c-0.1-0.4-0.1-0.8-0.2-1c-0.1-0.2-0.2-0.4-0.3-0.6c-0.4-0.5-1-0.7-1.7-0.7
		c-0.4,0-0.7,0.1-1,0.3c-0.2,0.2-0.3,0.4-0.3,0.7c0,0.2,0.1,0.4,0.3,0.6c0.2,0.2,0.5,0.3,1,0.6l0.5,0.2l0.4,0.2l0.6,0.3
		c1,0.5,1.6,1.4,1.6,2.5c0,0.9-0.3,1.6-0.9,2.2s-1.5,0.8-2.5,0.8c-0.7,0-1.4-0.1-2.1-0.4c-0.2-0.1-0.4-0.2-0.5-0.2
		c-0.1,0-0.2,0-0.2,0c-0.2,0-0.4,0.2-0.5,0.5h-0.2l0-3.3H99c0.1,0.5,0.2,0.9,0.3,1.1c0.1,0.3,0.2,0.5,0.4,0.7
		c0.4,0.5,1.1,0.8,1.8,0.8c0.4,0,0.8-0.1,1-0.3c0.3-0.2,0.4-0.5,0.4-0.8c0-0.3-0.1-0.5-0.3-0.7c-0.1-0.1-0.2-0.2-0.3-0.3
		c-0.1-0.1-0.3-0.2-0.6-0.3l-0.5-0.3l-0.6-0.3c-0.6-0.3-1.1-0.6-1.4-0.8c-0.5-0.5-0.8-1.1-0.8-1.9c0-0.9,0.3-1.5,0.9-2
		c0.6-0.5,1.4-0.7,2.5-0.7c0.4,0,0.7,0,0.9,0.1c0.2,0,0.6,0.1,1.1,0.3c0.2,0,0.3,0.1,0.4,0.1c0.1,0,0.2,0,0.2,0
		C104.9,25,105,24.9,105,24.6"/>
	<path class="st0" d="M105.2,25v-0.3h5.4V25h-0.2c-0.5,0-0.7,0.1-0.7,0.4c0,0.1,0,0.2,0.1,0.4l1.5,4.4l1.7-4.4
		c0.1-0.2,0.1-0.3,0.1-0.4c0-0.3-0.2-0.4-0.7-0.4h-0.3v-0.3h3V25h-0.1c-0.3,0-0.5,0.1-0.6,0.2c-0.1,0.1-0.3,0.3-0.4,0.7l-3.3,8.2
		c-0.2,0.5-0.4,0.9-0.5,1.2c-0.2,0.3-0.4,0.6-0.6,0.8c-0.5,0.5-1.1,0.8-2,0.8c-0.6,0-1.1-0.1-1.5-0.4c-0.4-0.3-0.6-0.6-0.6-1.1
		c0-0.4,0.1-0.7,0.4-0.9c0.3-0.3,0.6-0.4,0.9-0.4c0.3,0,0.6,0.1,0.8,0.3c0.2,0.2,0.4,0.4,0.4,0.7v0.3c0,0.2,0.1,0.3,0.4,0.3
		c0.4,0,0.8-0.4,1.1-1.3l-3.2-8.5c-0.2-0.6-0.5-0.9-1-0.9H105.2z"/>
	<path class="st0" d="M119.5,32.2c0.2,0,0.4,0,0.5-0.1s0.3-0.2,0.5-0.4v-4.6c0-0.4-0.1-0.8-0.3-1.1c-0.2-0.3-0.5-0.4-0.8-0.4
		c-0.5,0-0.8,0.3-1.1,0.8c-0.2,0.6-0.4,1.4-0.4,2.4c0,1,0.1,1.8,0.4,2.4C118.7,31.9,119,32.2,119.5,32.2 M120.5,25.3v-2.8
		c0-0.3-0.1-0.6-0.2-0.7c-0.1-0.1-0.3-0.2-0.6-0.2l-0.3,0l-0.1-0.2l4.3-1.1l0,11c0,0.4,0.1,0.7,0.2,0.9c0.1,0.2,0.3,0.2,0.6,0.2
		l0.4-0.1l0,0.2l-4.5,1l0.1-1l-0.4,0.4c-0.2,0.2-0.5,0.4-0.9,0.5c-0.3,0.1-0.7,0.2-1.1,0.2c-1,0-1.9-0.4-2.5-1.3
		c-0.7-0.8-1-1.9-1-3.2c0-1.4,0.4-2.5,1.1-3.3c0.7-0.9,1.7-1.3,2.9-1.3C119.4,24.6,120,24.9,120.5,25.3"/>
	<path class="st0" d="M124.5,33.6v-0.2c0.5,0,0.8-0.1,1-0.2c0.2-0.1,0.3-0.4,0.3-0.7v-0.7v-5c0-0.4-0.1-0.6-0.2-0.7
		c-0.1-0.1-0.3-0.2-0.6-0.2l-0.3,0.1l-0.1-0.2l4.4-1V26c0.3-0.3,0.5-0.4,0.6-0.6c0.1-0.1,0.3-0.2,0.5-0.4c0.6-0.3,1.1-0.5,1.7-0.5
		c0.8,0,1.4,0.2,1.9,0.7c0.2,0.2,0.4,0.5,0.5,0.7c0.1,0.2,0.1,0.7,0.1,1.3v5c0,0.3,0.1,0.6,0.3,0.7c0.2,0.1,0.5,0.2,0.9,0.2v0.2H130
		v-0.2c0.4,0,0.6-0.1,0.8-0.2c0.1-0.1,0.2-0.4,0.2-0.7v-5c0-0.3,0-0.6,0-0.6c0-0.1-0.1-0.2-0.2-0.3c-0.2-0.2-0.4-0.3-0.6-0.3
		c-0.4,0-0.8,0.2-1.2,0.7v5.6c0,0.6,0.3,1,1,1v0.2H124.5z"/>
	<path class="st0" d="M138.3,26.8l-0.1,1h2.1c0-0.6,0-0.9-0.1-1.2c0-0.2-0.1-0.4-0.2-0.7c-0.2-0.3-0.4-0.5-0.7-0.5
		c-0.2,0-0.5,0.1-0.6,0.4C138.5,26.1,138.4,26.4,138.3,26.8 M143.6,28.8h-5.4c0,0.5,0,0.8,0.1,1c0.1,0.2,0.2,0.5,0.3,0.8
		c0.4,0.8,1.1,1.3,2.1,1.3c0.5,0,0.9-0.1,1.3-0.3c0.4-0.2,0.7-0.4,0.9-0.6c0.2-0.2,0.4-0.6,0.7-1.1l0.2,0.1
		c-0.1,0.3-0.2,0.5-0.2,0.7c-0.1,0.3-0.3,0.6-0.4,1c-0.3,0.7-0.8,1.2-1.5,1.5c-0.7,0.4-1.5,0.5-2.4,0.5c-1.3,0-2.4-0.4-3.2-1.3
		c-0.8-0.8-1.2-1.9-1.2-3.3c0-1.4,0.4-2.5,1.2-3.3c0.8-0.8,1.9-1.3,3.3-1.3c0.9,0,1.7,0.2,2.4,0.7c0.6,0.3,1,0.8,1.3,1.3
		C143.4,27.1,143.6,27.8,143.6,28.8"/>
	<path class="st0" d="M143,25v-0.3h5.4V25h-0.2c-0.5,0-0.7,0.1-0.7,0.4c0,0.1,0,0.2,0.1,0.4l1.5,4.4l1.7-4.4
		c0.1-0.2,0.1-0.3,0.1-0.4c0-0.3-0.2-0.4-0.7-0.4h-0.3v-0.3h3V25H153c-0.3,0-0.5,0.1-0.6,0.2c-0.1,0.1-0.3,0.3-0.4,0.7l-3.3,8.2
		c-0.2,0.5-0.4,0.9-0.5,1.2c-0.2,0.3-0.4,0.6-0.6,0.8c-0.5,0.5-1.1,0.8-2,0.8c-0.6,0-1.1-0.1-1.5-0.4c-0.4-0.3-0.6-0.6-0.6-1.1
		c0-0.4,0.1-0.7,0.4-0.9c0.3-0.3,0.6-0.4,0.9-0.4c0.3,0,0.6,0.1,0.8,0.3c0.2,0.2,0.4,0.4,0.4,0.7v0.3c0,0.2,0.1,0.3,0.4,0.3
		c0.4,0,0.8-0.4,1.1-1.3l-3.2-8.5c-0.2-0.6-0.5-0.9-1-0.9H143z"/>
	<path class="st0" d="M101.9,39.9h0.2l0.1,3.1h-0.2c-0.1-0.4-0.1-0.8-0.2-1c-0.1-0.2-0.2-0.4-0.3-0.6c-0.4-0.5-1-0.7-1.7-0.7
		c-0.4,0-0.7,0.1-1,0.3c-0.2,0.2-0.3,0.4-0.3,0.7c0,0.2,0.1,0.4,0.3,0.6c0.2,0.2,0.5,0.3,1,0.6l0.5,0.2l0.4,0.2l0.6,0.3
		c1,0.5,1.6,1.4,1.6,2.5c0,0.9-0.3,1.6-0.9,2.2s-1.5,0.8-2.5,0.8c-0.7,0-1.4-0.1-2.1-0.4c-0.2-0.1-0.4-0.2-0.5-0.2
		c-0.1,0-0.2,0-0.2,0c-0.2,0-0.4,0.2-0.5,0.5h-0.2l0-3.3h0.2c0.1,0.5,0.2,0.9,0.3,1.1c0.1,0.3,0.2,0.5,0.4,0.7
		c0.4,0.5,1.1,0.8,1.8,0.8c0.4,0,0.8-0.1,1-0.3c0.3-0.2,0.4-0.5,0.4-0.8c0-0.3-0.1-0.5-0.3-0.7c-0.1-0.1-0.2-0.2-0.3-0.3
		c-0.1-0.1-0.3-0.2-0.6-0.3l-0.5-0.3l-0.6-0.3c-0.6-0.3-1.1-0.6-1.4-0.8c-0.5-0.5-0.8-1.1-0.8-1.9c0-0.9,0.3-1.5,0.9-2
		c0.6-0.5,1.4-0.7,2.5-0.7c0.4,0,0.7,0,0.9,0.1c0.2,0,0.6,0.1,1.1,0.3c0.2,0,0.3,0.1,0.4,0.1c0.1,0,0.2,0,0.2,0
		C101.8,40.4,101.9,40.2,101.9,39.9"/>
	<path class="st0" d="M102.6,41l0-0.3c1.2-0.5,2-1,2.5-1.4c0.5-0.4,1.1-1.1,1.8-2.2h0.2v3h2.1V41h-2.1v5.6c0,0.3,0,0.5,0.1,0.6
		c0.1,0.4,0.4,0.6,0.9,0.6c0.5,0,0.9-0.3,1.2-0.8l0.3,0.1c-0.2,0.5-0.4,0.8-0.6,1c-0.2,0.2-0.4,0.4-0.7,0.6
		c-0.5,0.3-1.1,0.4-1.7,0.4c-0.8,0-1.4-0.2-1.9-0.6c-0.4-0.4-0.7-0.9-0.7-1.5V41H102.6z"/>
	<path class="st0" d="M114.9,47.1v-2.9c-0.7,0.4-1.2,0.7-1.4,0.9c-0.3,0.3-0.5,0.7-0.5,1.2c0,0.4,0.1,0.7,0.2,0.9
		c0.2,0.2,0.4,0.4,0.7,0.4c0.2,0,0.3,0,0.5-0.1C114.5,47.4,114.7,47.3,114.9,47.1 M114.9,43.4V42c0-0.5-0.1-0.8-0.2-1
		c-0.2-0.2-0.4-0.3-0.8-0.3c-0.3,0-0.6,0.1-0.8,0.2c-0.2,0.1-0.3,0.3-0.3,0.5c0,0.1,0,0.2,0.1,0.3l0.2,0.3c0,0.1,0.1,0.2,0.1,0.4
		c0,0.4-0.1,0.6-0.4,0.9c-0.3,0.2-0.6,0.3-1,0.3c-0.4,0-0.7-0.1-1-0.4c-0.3-0.2-0.4-0.5-0.4-0.9c0-0.7,0.4-1.3,1.2-1.7
		c0.8-0.5,1.8-0.7,3-0.7c1.1,0,1.9,0.2,2.6,0.5c0.4,0.2,0.6,0.5,0.8,0.8c0.2,0.3,0.2,0.8,0.2,1.3v4.2c0,0.2,0,0.4,0,0.5
		c0,0.1,0,0.2,0.1,0.3c0.1,0.1,0.2,0.2,0.5,0.2c0.2,0,0.3,0,0.4-0.1c0.1-0.1,0.3-0.2,0.4-0.4l0.2,0.2c-0.2,0.2-0.2,0.4-0.3,0.4
		c-0.1,0.1-0.2,0.2-0.3,0.3c-0.5,0.6-1.2,0.8-2.1,0.8c-0.9,0-1.7-0.4-2.2-1.1c-0.8,0.8-1.6,1.1-2.5,1.1c-0.7,0-1.3-0.2-1.8-0.6
		c-0.5-0.4-0.7-0.9-0.7-1.5c0-0.9,0.4-1.6,1.3-2.2l0.8-0.4c0.2-0.1,0.5-0.2,0.8-0.3c0.3-0.1,0.6-0.2,0.8-0.2l0.8-0.2L114.9,43.4z"/>
	<path class="st0" d="M119.4,48.9v-0.2c0.4,0,0.7-0.1,0.9-0.2c0.2-0.1,0.2-0.4,0.2-0.7v-0.9V42c0-0.4-0.1-0.6-0.2-0.8
		c-0.1-0.1-0.3-0.2-0.6-0.2l-0.3,0.1l-0.1-0.2l4.4-1v1.7c0.4-0.5,0.8-0.9,1.2-1.1c0.4-0.2,0.7-0.4,1.1-0.4c0.4,0,0.7,0.1,0.9,0.4
		c0.3,0.3,0.4,0.6,0.4,0.9c0,0.4-0.1,0.7-0.4,0.9c-0.2,0.2-0.5,0.4-0.9,0.4c-0.4,0-0.8-0.2-1-0.5l-0.2-0.3c-0.1-0.1-0.2-0.2-0.4-0.2
		c-0.1,0-0.2,0-0.3,0.1c-0.1,0.1-0.2,0.2-0.2,0.3c-0.1,0.2-0.1,0.3-0.2,0.5c0,0.2,0,0.5,0,0.9v4.2c0,0.4,0.1,0.6,0.2,0.8
		c0.2,0.1,0.5,0.2,0.9,0.2v0.2H119.4z"/>
	<path class="st0" d="M127.7,41l0-0.3c1.2-0.5,2-1,2.5-1.4c0.5-0.4,1.1-1.1,1.8-2.2h0.2v3h2.1V41h-2.1v5.6c0,0.3,0,0.5,0.1,0.6
		c0.1,0.4,0.4,0.6,0.9,0.6c0.5,0,0.9-0.3,1.2-0.8l0.3,0.1c-0.2,0.5-0.4,0.8-0.6,1c-0.2,0.2-0.4,0.4-0.7,0.6
		c-0.5,0.3-1.1,0.4-1.7,0.4c-0.8,0-1.4-0.2-1.9-0.6c-0.4-0.4-0.7-0.9-0.7-1.5V41H127.7z"/>
	<path class="st0" d="M135.5,40.8l4.4-1v6.5c0,0.4,0.1,0.7,0.2,0.9c0.1,0.2,0.4,0.3,0.7,0.3c0.3,0,0.8-0.2,1.2-0.7V42
		c0-0.4-0.1-0.6-0.2-0.7c-0.1-0.1-0.3-0.2-0.6-0.2l-0.3,0.1l-0.1-0.2l4.3-1l0,7c0,0.7,0.2,1,0.7,1l0.4-0.1l0,0.3l-4.4,1v-1.5
		l-0.7,0.6c-0.7,0.5-1.4,0.8-2.2,0.8c-0.7,0-1.4-0.2-1.8-0.6c-0.2-0.2-0.4-0.5-0.5-0.7c-0.1-0.3-0.1-0.7-0.1-1.2V42
		c0-0.4-0.1-0.6-0.2-0.7c-0.1-0.1-0.3-0.2-0.6-0.2l-0.3,0.1L135.5,40.8z"/>
	<path class="st0" d="M151.4,41.5c-0.2,0-0.4,0-0.5,0.1c-0.1,0.1-0.3,0.2-0.5,0.5v4.6c0,0.4,0.1,0.7,0.3,1c0.2,0.3,0.5,0.4,0.8,0.4
		c0.4,0,0.8-0.3,1-0.9c0.2-0.6,0.4-1.4,0.4-2.4c0-1-0.1-1.8-0.4-2.4C152.2,41.7,151.9,41.5,151.4,41.5 M146.1,52v-0.2
		c0.4,0,0.8-0.1,0.9-0.2c0.2-0.1,0.2-0.4,0.2-0.7v-0.7V42c0-0.4-0.1-0.6-0.2-0.7c-0.1-0.1-0.3-0.2-0.6-0.2l-0.3,0.1l-0.1-0.2l4.4-1
		l-0.1,1.4c0.3-0.3,0.5-0.5,0.6-0.6c0.2-0.1,0.4-0.2,0.6-0.3c0.4-0.2,0.8-0.3,1.2-0.3c1,0,1.8,0.4,2.4,1.2c0.6,0.8,0.9,1.9,0.9,3.1
		c0,1.4-0.4,2.5-1.1,3.4c-0.7,0.9-1.7,1.3-2.9,1.3c-0.1,0-0.3,0-0.4,0c-0.2,0-0.3-0.1-0.5-0.1c-0.2-0.1-0.3-0.1-0.4-0.2
		c-0.1-0.1-0.2-0.2-0.4-0.4l0,2.5c0,0.4,0.1,0.6,0.2,0.8c0.2,0.1,0.5,0.2,0.9,0.2V52H146.1z"/>
	<path class="st0" d="M113.5,63.3v-0.2c0.3,0,0.5,0,0.6-0.1c0.1-0.1,0.2-0.3,0.2-0.5V56c0-0.2-0.1-0.4-0.2-0.5
		c-0.1-0.1-0.3-0.1-0.6-0.1v-0.2h3.9v0.2c-0.3,0-0.5,0-0.6,0.1c-0.1,0.1-0.2,0.3-0.2,0.5l0,2.8h2.8V56c0-0.2-0.1-0.4-0.2-0.5
		c-0.1-0.1-0.3-0.1-0.6-0.1v-0.2h3.9v0.2c-0.3,0-0.5,0-0.6,0.1c-0.1,0.1-0.2,0.3-0.2,0.5l0,6.5c0,0.2,0.1,0.4,0.2,0.5
		c0.1,0.1,0.3,0.1,0.6,0.1v0.2h-3.9v-0.2c0.3,0,0.5,0,0.6-0.1c0.1-0.1,0.2-0.3,0.2-0.5v-3h-2.8v3c0,0.2,0.1,0.4,0.2,0.5
		c0.1,0.1,0.3,0.1,0.6,0.1v0.2H113.5z"/>
	<path class="st0" d="M122.3,55.3v-0.2h3.9v0.2c-0.3,0-0.5,0-0.6,0.1c-0.1,0.1-0.2,0.3-0.2,0.5l0,5c0,0.3,0,0.6,0.1,0.8
		c0.1,0.3,0.3,0.5,0.6,0.7c0.3,0.2,0.7,0.2,1.1,0.2c0.6,0,1-0.1,1.3-0.4c0.3-0.3,0.5-0.7,0.5-1.2V56c0-0.2-0.1-0.4-0.2-0.5
		c-0.1-0.1-0.3-0.1-0.6-0.1v-0.2h2.3v0.2c-0.3,0-0.5,0-0.6,0.1c-0.1,0.1-0.2,0.3-0.2,0.5v5.1c0,0.4-0.1,0.7-0.2,0.9
		c-0.2,0.4-0.5,0.7-1.1,1c-0.6,0.3-1.2,0.4-1.9,0.4c-0.6,0-1.1-0.1-1.7-0.3c-0.6-0.2-1-0.4-1.3-0.8c-0.3-0.3-0.4-0.8-0.4-1.3V56
		c0-0.2-0.1-0.4-0.2-0.5C122.9,55.4,122.7,55.3,122.3,55.3"/>
	<path class="st0" d="M133.5,59.4v3.2c0.3,0.1,0.5,0.1,0.7,0.1c0.4,0,0.8-0.2,1-0.5s0.4-0.7,0.4-1.1c0-0.5-0.1-0.9-0.4-1.2
		c-0.3-0.3-0.7-0.5-1.2-0.5H133.5z M133.5,55.9v2.8c0.2,0,0.4,0,0.5,0c0.4,0,0.8-0.1,1-0.4c0.3-0.3,0.4-0.6,0.4-1.1
		c0-0.4-0.1-0.8-0.4-1c-0.3-0.3-0.6-0.4-1-0.4h-0.3C133.6,55.8,133.5,55.9,133.5,55.9 M130.4,63.3v-0.2c0.3,0,0.5,0,0.6-0.1
		c0.1-0.1,0.2-0.3,0.2-0.5v-0.6V56c0-0.2-0.1-0.4-0.2-0.5c-0.1-0.1-0.3-0.1-0.6-0.1v-0.2l4.1,0c1,0,1.8,0.2,2.3,0.5
		c0.5,0.3,0.8,0.8,0.8,1.5c0,0.5-0.2,0.9-0.4,1.2c-0.3,0.3-0.7,0.5-1.3,0.7c0.7,0.1,1.2,0.4,1.5,0.7c0.4,0.4,0.5,0.8,0.5,1.3
		c0,0.4-0.1,0.7-0.3,1c-0.2,0.3-0.5,0.6-0.8,0.7c-0.3,0.2-0.6,0.3-0.9,0.3c-0.3,0-0.8,0.1-1.6,0.1H130.4z"/>
	<path class="st1" d="M142.2,59.5H157 M94.6,59.5h14.9"/>
	<path class="st0" d="M16.7,49.1l-9.4-11h-4v17.2h3.9v-11l9.3,11h4V38.1h-3.9V49.1z M53.8,38.1l-2.6,11l-2.7-11h-3.7L42.1,49
		l-2.5-10.9h-4L40,55.3h4l2.6-10.9l2.7,10.9h3.9l0-0.1l4.5-17.1H53.8z"/>
	<path class="st0" d="M2.9,60.6L2.9,60.6c0-1.5,1.1-2.8,2.7-2.8c0.9,0,1.5,0.3,2,0.7l-0.6,0.7c-0.4-0.4-0.8-0.6-1.5-0.6
		c-1,0-1.7,0.9-1.7,1.9v0c0,1.1,0.7,1.9,1.8,1.9c0.5,0,1-0.2,1.3-0.4v-1H5.6v-0.8h2.3v2.2c-0.5,0.4-1.3,0.8-2.2,0.8
		C4,63.3,2.9,62.1,2.9,60.6"/>
	<path class="st0" d="M8.5,60.6L8.5,60.6c0-1.5,1.2-2.8,2.8-2.8c1.6,0,2.8,1.2,2.8,2.7v0c0,1.5-1.2,2.8-2.8,2.8
		C9.6,63.3,8.5,62.1,8.5,60.6 M13.1,60.6L13.1,60.6c0-1.1-0.8-1.9-1.8-1.9s-1.8,0.8-1.8,1.9v0c0,1,0.8,1.9,1.8,1.9
		C12.3,62.5,13.1,61.6,13.1,60.6"/>
	<polygon class="st0" points="18.2,57.9 16.6,62 15,57.9 14,57.9 16.2,63.3 17,63.3 19.2,57.9 	"/>
	<polygon class="st0" points="19.9,57.9 19.9,63.2 23.8,63.2 23.8,62.4 20.8,62.4 20.8,61 23.5,61 23.5,60.1 20.8,60.1 20.8,58.7 
		23.8,58.7 23.8,57.9 	"/>
	<path class="st0" d="M24.8,57.9h2.4c0.7,0,1.2,0.2,1.5,0.5c0.3,0.3,0.4,0.7,0.4,1.1v0c0,0.9-0.5,1.4-1.3,1.6l1.4,2h-1.1l-1.3-1.9
		h-1.2v1.9h-0.9V57.9z M27.1,60.5c0.7,0,1.1-0.4,1.1-0.9v0c0-0.6-0.4-0.9-1.1-0.9h-1.4v1.8H27.1z"/>
	<polygon class="st0" points="33.7,57.9 33.7,61.6 30.8,57.9 29.9,57.9 29.9,63.2 30.9,63.2 30.9,59.4 33.8,63.2 34.6,63.2 
		34.6,57.9 	"/>
	<polygon class="st0" points="39.8,57.9 38.1,60.4 36.5,57.9 35.5,57.9 35.5,63.2 36.4,63.2 36.4,59.4 38.1,61.9 38.1,61.9 
		39.8,59.4 39.8,63.2 40.8,63.2 40.8,57.9 	"/>
	<polygon class="st0" points="41.7,57.9 41.7,63.2 45.6,63.2 45.6,62.4 42.6,62.4 42.6,61 45.3,61 45.3,60.1 42.6,60.1 42.6,58.7 
		45.6,58.7 45.6,57.9 	"/>
	<polygon class="st0" points="50.3,57.9 50.3,61.6 47.4,57.9 46.6,57.9 46.6,63.2 47.5,63.2 47.5,59.4 50.4,63.2 51.2,63.2 
		51.2,57.9 	"/>
	<polygon class="st0" points="51.9,57.9 51.9,58.8 53.6,58.8 53.6,63.2 54.6,63.2 54.6,58.8 56.3,58.8 56.3,57.9 	"/>
	<path class="st0" d="M21.6,52.9l2.3-2.7c1.6,1.3,3.2,2.1,5.2,2.1c1.6,0,2.5-0.6,2.5-1.7v-0.1c0-1-0.6-1.5-3.5-2.2
		c-3.5-0.9-5.8-1.9-5.8-5.3V43c0-3.2,2.5-5.3,6.1-5.3c2.5,0,4.7,0.8,6.5,2.2l-2,2.9c-1.6-1.1-3.1-1.7-4.5-1.7
		c-1.5,0-2.2,0.7-2.2,1.5v0c0,1.1,0.7,1.5,3.8,2.3c3.5,0.9,5.5,2.2,5.5,5.2v0c0,3.5-2.6,5.4-6.4,5.4C26.4,55.7,23.7,54.8,21.6,52.9"
		/>
	<path class="st0" d="M12.5,5.4c-0.4,0-0.6,0.2-0.7,0.6c0,0-0.1,0.6-0.2,1.7c-0.1,1-0.2,2.5-0.2,4.4c0,4.1,0.5,10,3.1,14.5
		c2,3.4,4.8,5.4,7.9,5.5c-1.2-0.9-2.7-2.5-3.4-4.9c-0.7-2.3-1.1-5-1.1-8c0-4.2,0.7-7.8,0.9-8.8c0,0,0,0,0,0c0.1-0.6,0.5-1,0.9-1.3
		c-3.2-2-5.9-3.2-6.4-3.5c-0.3-0.1-0.5-0.2-0.5-0.2l0,0l0,0C12.8,5.5,12.6,5.4,12.5,5.4"/>
	<path class="st0" d="M39.6,10.3c-0.1,0-0.2,0-0.3,0.1c0,0-0.1,0.1-0.3,0.2c-0.2,0.1-0.4,0.4-0.8,0.7c-0.5,0.4-1.4,1.3-2.6,2.6
		c-1.8,2-4.2,5.1-5.3,8.8c-0.7,2.1-1,4-1,5.5c0,1.1,0.2,2.1,0.5,2.8c0.3,0.7,0.9,1.3,1.6,1.6c0.3,0.1,0.7,0.2,1.2,0.2h0
		c2.2,0,5.8-1.8,7.1-5.9c0.7-2.2,1-4.7,1-7.6c0-3.6-0.5-6.7-0.7-7.9C40,11,40,10.7,40,10.7C39.9,10.5,39.8,10.3,39.6,10.3"/>
	<path class="st0" d="M20.5,10.3c-0.2,0-0.3,0.3-0.4,0.5c0,0-0.1,0.3-0.1,0.7c-0.1,0.3-0.2,0.9-0.3,1.8c-0.2,1.4-0.4,3.6-0.4,6
		c0,2.9,0.3,5.5,1,7.6c1.3,4,5,5.9,7.2,5.9h0c0.5,0,0.9-0.1,1.2-0.2c0.2-0.1,0.4-0.2,0.6-0.3c-0.2-0.2-0.3-0.5-0.4-0.7
		c-0.4-0.9-0.7-2-0.7-3.4c0-1.7,0.4-3.6,1-5.8c0.1-0.2,0.1-0.4,0.2-0.6c0-0.1,0.1-0.2,0.1-0.2c-2.4-5.9-7.8-10.3-8.4-10.8
		c-0.2-0.2-0.3-0.2-0.3-0.2C20.7,10.3,20.6,10.3,20.5,10.3"/>
	<path class="st0" d="M30,0.6c-0.1,0-0.3,0.1-0.4,0.3c0,0-0.1,0.2-0.3,0.5c-0.3,0.5-0.5,0.9-0.8,1.4c-0.6,1-1.5,2.7-2.4,4.8
		c-0.6,1.4-1.2,2.9-1.7,4.4c1.8,1.8,4.1,4.5,5.7,7.9c1.2-2.6,3.1-5.2,5.5-7.8c-1.7-5-4-9.2-4.9-10.7c-0.2-0.3-0.3-0.5-0.3-0.5
		C30.2,0.6,30.1,0.6,30,0.6"/>
	<path class="st0" d="M47.5,5.4c-0.1,0-0.2,0-0.3,0.1l0,0l0,0c0,0-0.2,0.1-0.5,0.2C46.4,5.8,46,6,45.5,6.3l-0.2,0.1
		c-1.6,0.8-3.1,1.6-4.5,2.5c-0.2,0.1-0.3,0.2-0.5,0.3c0.4,0.2,0.8,0.7,0.9,1.3c0,0,0,0,0,0.1c0.2,1,0.9,4.6,0.9,8.8
		c0,3-0.4,5.7-1.1,8c-0.8,2.4-2.2,3.9-3.4,4.9c3.1-0.1,5.8-2.1,7.8-5.5c2.6-4.5,3.1-10.4,3.1-14.5c0-1.5-0.1-2.9-0.2-4.4
		c-0.1-1.1-0.2-1.7-0.2-1.7C48.1,5.7,47.9,5.4,47.5,5.4"/>
	<path class="st0" d="M39,1.9c0,0-0.1,0-0.1,0l0,0h0c-0.1,0-0.2,0-0.3,0.1l0,0l0,0c0,0-0.7,0.4-1.7,1.2c-0.6,0.4-1.5,1.1-2.6,2
		c0.8,1.7,1.5,3.4,2.2,5.1c1.3-1.1,2.8-2.1,4.5-3.1c-0.5-2.4-1-4.2-1.2-4.8c0,0,0,0,0-0.1C39.5,2.1,39.3,1.9,39,1.9"/>
	<path class="st0" d="M21.1,1.9c-0.3,0-0.5,0.2-0.6,0.5c0,0,0,0,0,0.1c-0.2,0.7-0.8,2.4-1.2,4.8c1.7,1,3.1,2,4.5,3.1
		C24.3,8.7,25,7,25.8,5.3c-0.9-0.7-1.8-1.4-2.6-2c-1-0.7-1.7-1.2-1.7-1.2l0,0l0,0c-0.1-0.1-0.2-0.1-0.3-0.1h0l0,0
		C21.2,1.9,21.1,1.9,21.1,1.9"/>
	<path class="st0" d="M6,13.1c-0.9,0-1.4,0-1.4,0c-0.4,0-0.7,0.2-0.9,0.5c-0.1,0.2-0.2,0.4-0.2,0.7C3.6,15,4,17.2,6.7,20.6
		c1.4-0.7,2.7-1.3,4.1-1.8c-0.3-1.7-0.4-3.5-0.5-5.5c-1.6-0.2-2.9-0.2-3.7-0.2C6.3,13.1,6.2,13.1,6,13.1"/>
	<path class="st0" d="M54,13.1c-0.2,0-0.3,0-0.5,0c-0.8,0-2.1,0.1-3.7,0.2c0,1.9-0.2,3.7-0.5,5.5c1.3,0.5,2.7,1.1,4.1,1.8
		c2.7-3.4,3.1-5.7,3.2-6.3c0-0.2-0.1-0.5-0.2-0.7c-0.2-0.3-0.5-0.5-0.9-0.5C55.5,13.1,54.9,13.1,54,13.1"/>
	<path class="st0" d="M49.1,20.1c-0.6,2.8-1.4,5.2-2.6,7.2c-1.2,2.1-2.7,3.7-4.5,4.8c12.8-0.7,16.4-4.8,16.8-5.3l0,0
		c0.1-0.2,0.2-0.4,0.2-0.6c0-0.4-0.2-0.7-0.5-0.9c0,0-0.1-0.1-0.4-0.3l0,0l0,0c-0.2-0.2-0.5-0.3-0.9-0.6c-0.1-0.1-0.2-0.1-0.3-0.2
		c-0.9-0.6-2.4-1.5-4.2-2.4C51.6,21.1,50.3,20.5,49.1,20.1"/>
	<path class="st0" d="M11,20.1c-4.3,1.6-7.8,3.9-9.1,4.8c-0.3,0.2-0.4,0.3-0.4,0.3C1.2,25.4,1,25.7,1,26.1c0,0.2,0.1,0.4,0.2,0.6
		c0,0,0,0,0,0c0,0,0.1,0.1,0.1,0.1c0,0,0,0,0.1,0.1C1.5,27,1.7,27.3,2,27.5C2.5,28,3.5,28.7,5,29.4c3.2,1.5,7.7,2.4,13,2.7
		c-1.7-1.1-3.3-2.7-4.5-4.8C12.4,25.3,11.5,22.9,11,20.1"/>
	<path class="st0" d="M47.5,33c-0.7,0-1.6,0.1-3.1,0.3c-0.2,0-0.4,0.1-0.7,0.1c-0.6,0.1-1.4,0.1-2.5,0.1c-0.6,0-1.3,0-2,0l-0.1,0
		c-0.7,0-1.4,0-2.2,0c-1.6,0-3.6,0.1-5.4,0.6c-0.1,0-0.2,0.1-0.1,0.2c0,0.1,0.1,0.1,0.2,0.1c0,0,0.1,0,0.1,0c0.7-0.1,1.4-0.1,2-0.1
		c2.3,0,3.9,0.4,5.5,0.8c1.4,0.4,2.8,0.7,4.7,0.7c2,0,3.6-0.4,4.3-1.2c0.2-0.2,0.3-0.5,0.3-0.8C48.5,33.2,48.4,33,47.5,33"/>
	<path class="st0" d="M12.6,33c-0.9,0-1.1,0.2-1.1,0.8c0,0.3,0.1,0.5,0.3,0.8c0.6,0.7,2.3,1.2,4.3,1.2c1.9,0,3.3-0.3,4.7-0.7
		c1.5-0.4,3.1-0.8,5.5-0.8c0.6,0,1.3,0,2,0.1c0,0,0.1,0,0.1,0c0.1,0,0.2,0,0.2-0.1c0-0.1-0.1-0.2-0.1-0.2c-1.8-0.5-3.8-0.6-5.4-0.6
		h0c-0.8,0-1.5,0-2.2,0l-0.1,0c-0.7,0-1.4,0-2,0c-1,0-1.8,0-2.5-0.1c-0.2,0-0.5-0.1-0.7-0.1C14.2,33.1,13.2,33,12.6,33"/>
</g>
<g id="Layer_2">
</g>
</svg>
